<svg xmlns="http://www.w3.org/2000/svg" viewBox="0 0 100 100"><mask id="m"><g fill="#fff"><path d="M57 57 Q60 25 66 15 Q60 8 50 3 Q40 8 34 15 Q40 25 43 57 Z"/><path transform="rotate(90 50 50)" d="M57 57 Q60 25 66 15 Q60 8 50 3 Q40 8 34 15 Q40 25 43 57 Z"/><path transform="rotate(180 50 50)" d="M57 57 Q60 25 66 15 Q60 8 50 3 Q40 8 34 15 Q40 25 43 57 Z"/><path transform="rotate(270 50 50)" d="M57 57 Q60 25 66 15 Q60 8 50 3 Q40 8 34 15 Q40 25 43 57 Z"/></g><g fill="#000"><path d="M50 40 L58 50 L50 60 L42 50 Z"/><path d="M50 19 L55 26 L50 33 L45 26 Z"/><path d="M50 81 L55 74 L50 67 L45 74 Z"/><path d="M19 50 L26 55 L33 50 L26 45 Z"/><path d="M81 50 L74 55 L67 50 L74 45 Z"/></g></mask><rect width="100" height="100" fill="#1a1a1a" mask="url(#m)"/></svg>